<svg width="262" height="80" viewBox="0 0 262 80" fill="none" xmlns="http://www.w3.org/2000/svg">
<path d="M132.657 52.4356C135.991 52.4356 139.325 51.2193 141.983 49.2372L143.965 51.7148H148.65L144.956 47.0298C147.614 44.2367 149.235 40.7229 149.235 37.1641H145.902C145.902 40.2274 145.046 43.0655 143.604 45.363L132.567 31.3978C130.72 29.1454 130 27.0281 130 25.2712C130 21.9376 132.522 20.0906 135.135 20.0906C137.928 20.0906 140.901 22.2529 140.901 26.8479H144.37C144.37 21.8025 140.676 19.4599 136.126 19.4599C131.216 19.4599 126.801 22.4782 126.801 26.9831C126.801 28.8751 127.567 30.9924 129.414 33.3349L130.09 34.2359C123.873 35.9478 121.17 40.0022 121.17 43.7412C121.17 48.4263 125.089 52.4356 132.657 52.4356ZM133.063 51.895C127.927 51.895 125.089 47.9758 125.089 43.7863C125.089 40.5427 126.936 37.074 130.81 35.1369L141.307 48.3812C139.099 50.5436 136.216 51.895 133.063 51.895Z" fill="black"/>
<path d="M199.604 54.0555C205.042 54.0555 208.534 50.4097 208.534 44.663C208.534 38.8544 205.042 35.1468 199.604 35.1468C194.043 35.1468 190.675 38.8544 190.675 44.663C190.675 50.4097 194.043 54.0555 199.604 54.0555ZM199.604 53.5921C195.959 53.5921 194.198 49.2048 194.198 44.663C194.198 40.3683 195.959 35.6103 199.604 35.6103C203.065 35.6103 205.011 40.3683 205.011 44.663C205.011 49.2048 203.065 53.5921 199.604 53.5921ZM226.533 35.1468C223.783 35.1468 220.416 37.0624 217.851 41.357V35.6721H214.144V53.5303H217.851V42.1912C219.798 38.6072 222.733 36.3518 224.772 36.3518C226.132 36.3518 227.089 37.3714 227.089 39.8122V53.5303H230.797V39.7504C230.797 36.5063 228.665 35.1468 226.533 35.1468ZM243.824 54.0555C247.778 54.0555 251.826 52.6652 251.919 49.0194C251.919 43.5198 239.375 41.1099 239.375 38.1129C239.375 36.5681 241.012 35.8265 243.206 35.8265C245.492 35.8265 248.767 36.9079 250.961 38.3601L251.362 35.8883C249.447 35.394 247.346 35.1468 245.338 35.1468C240.889 35.1468 236.625 36.3827 236.625 39.4414C236.625 44.045 249.416 46.3623 249.416 50.7496C249.323 52.2326 247.624 53.2522 245.183 53.2522C243.329 53.2522 240.58 52.6961 237.552 50.3788L236.934 52.8505C239.004 53.5921 241.476 54.0555 243.824 54.0555Z" fill="black"/>
<path d="M199.604 54.2969C202.379 54.2969 204.678 53.3654 206.283 51.6808C207.887 49.9974 208.775 47.5852 208.775 44.663H208.292C208.292 47.4875 207.435 49.7716 205.933 51.3478C204.433 52.9228 202.268 53.8141 199.604 53.8141V54.2969ZM208.775 44.663C208.775 41.7106 207.887 39.268 206.284 37.5614C204.68 35.8533 202.38 34.9054 199.604 34.9054V35.3882C202.266 35.3882 204.432 36.2941 205.932 37.8919C207.434 39.4913 208.292 41.8068 208.292 44.663H208.775ZM199.604 34.9054C196.768 34.9054 194.468 35.8526 192.878 37.5623C191.29 39.2699 190.434 41.7129 190.434 44.663H190.917C190.917 41.8045 191.745 39.4894 193.231 37.8911C194.715 36.2949 196.88 35.3882 199.604 35.3882V34.9054ZM190.434 44.663C190.434 47.5829 191.29 49.9954 192.879 51.6799C194.469 53.3661 196.769 54.2969 199.604 54.2969V53.8141C196.878 53.8141 194.714 52.9221 193.23 51.3487C191.744 49.7735 190.917 47.4898 190.917 44.663H190.434ZM199.604 53.3507C197.898 53.3507 196.615 52.3307 195.746 50.7163C194.875 49.0973 194.439 46.9077 194.439 44.663H193.956C193.956 46.9601 194.401 49.235 195.321 50.9451C196.244 52.6597 197.665 53.8334 199.604 53.8334V53.3507ZM194.439 44.663C194.439 42.5435 194.874 40.3208 195.748 38.6373C196.622 36.9541 197.907 35.8517 199.604 35.8517V35.3689C197.656 35.3689 196.238 36.6455 195.32 38.4149C194.401 40.1842 193.956 42.4879 193.956 44.663H194.439ZM199.604 35.8517C201.207 35.8517 202.493 36.9509 203.392 38.6396C204.29 40.3246 204.77 42.5472 204.77 44.663H205.253C205.253 42.4841 204.76 40.1804 203.819 38.4127C202.879 36.6487 201.462 35.3689 199.604 35.3689V35.8517ZM204.77 44.663C204.77 46.9039 204.289 49.0936 203.394 50.714C202.5 52.3338 201.215 53.3507 199.604 53.3507V53.8334C201.454 53.8334 202.873 52.6567 203.817 50.9474C204.76 49.2387 205.253 46.9639 205.253 44.663H204.77ZM217.851 41.357H217.61V42.2321L218.059 41.4808L217.851 41.357ZM217.851 35.6721H218.093V35.4307H217.851V35.6721ZM214.144 35.6721V35.4307H213.902V35.6721H214.144ZM214.144 53.5303H213.902V53.7717H214.144V53.5303ZM217.851 53.5303V53.7717H218.093V53.5303H217.851ZM217.851 42.1912L217.639 42.076L217.61 42.1299V42.1912H217.851ZM227.089 53.5303H226.848V53.7717H227.089V53.5303ZM230.797 53.5303V53.7717H231.038V53.5303H230.797ZM226.533 34.9054C223.672 34.9054 220.236 36.8918 217.644 41.2333L218.059 41.4808C220.595 37.233 223.895 35.3882 226.533 35.3882V34.9054ZM218.093 41.357V35.6721H217.61V41.357H218.093ZM217.851 35.4307H214.144V35.9134H217.851V35.4307ZM213.902 35.6721V53.5303H214.385V35.6721H213.902ZM214.144 53.7717H217.851V53.2889H214.144V53.7717ZM218.093 53.5303V42.1912H217.61V53.5303H218.093ZM218.063 42.3064C219.023 40.5393 220.224 39.1044 221.43 38.114C222.643 37.1183 223.833 36.5932 224.772 36.5932V36.1104C223.672 36.1104 222.375 36.713 221.124 37.741C219.866 38.7743 218.626 40.2592 217.639 42.076L218.063 42.3064ZM224.772 36.5932C225.384 36.5932 225.887 36.8186 226.246 37.3091C226.613 37.8112 226.848 38.6177 226.848 39.8122H227.331C227.331 38.5659 227.087 37.6422 226.635 37.0242C226.175 36.3948 225.519 36.1104 224.772 36.1104V36.5932ZM226.848 39.8122V53.5303H227.331V39.8122H226.848ZM227.089 53.7717H230.797V53.2889H227.089V53.7717ZM231.038 53.5303V39.7504H230.556V53.5303H231.038ZM231.038 39.7504C231.038 38.0723 230.485 36.8535 229.629 36.0555C228.777 35.2611 227.648 34.9054 226.533 34.9054V35.3882C227.55 35.3882 228.553 35.7123 229.3 36.4086C230.043 37.1014 230.556 38.1844 230.556 39.7504H231.038ZM251.919 49.0194L252.16 49.0255V49.0194H251.919ZM250.961 38.3601L250.828 38.5613L251.139 38.7676L251.199 38.3988L250.961 38.3601ZM251.362 35.8883L251.601 35.9271L251.636 35.7097L251.423 35.6546L251.362 35.8883ZM249.416 50.7496L249.657 50.7646L249.657 50.7571V50.7496H249.416ZM237.552 50.3788L237.698 50.1871L237.407 49.9639L237.318 50.3203L237.552 50.3788ZM236.934 52.8505L236.7 52.792L236.647 53.0041L236.852 53.0778L236.934 52.8505ZM243.824 54.2969C245.824 54.2969 247.867 53.9462 249.432 53.118C251.006 52.2849 252.111 50.9569 252.16 49.0255L251.677 49.0132C251.634 50.7276 250.668 51.9177 249.207 52.6913C247.736 53.4697 245.778 53.8141 243.824 53.8141V54.2969ZM252.16 49.0194C252.16 47.5446 251.318 46.3025 250.119 45.2362C248.92 44.1693 247.329 43.2474 245.76 42.4144C244.178 41.5749 242.629 40.8307 241.462 40.1032C240.881 39.7405 240.411 39.3919 240.089 39.0508C239.766 38.7082 239.616 38.3995 239.616 38.1129H239.133C239.133 38.5756 239.375 38.9977 239.738 39.3821C240.102 39.7679 240.613 40.1422 241.207 40.5128C242.392 41.252 243.979 42.0158 245.533 42.8409C247.1 43.6724 248.646 44.5716 249.798 45.5969C250.952 46.6229 251.677 47.7444 251.677 49.0194H252.16ZM239.616 38.1129C239.616 37.4452 239.962 36.9464 240.584 36.6016C241.218 36.2505 242.13 36.0679 243.206 36.0679V35.5852C242.087 35.5852 241.084 35.7733 240.351 36.1792C239.606 36.5914 239.133 37.2358 239.133 38.1129H239.616ZM243.206 36.0679C245.437 36.0679 248.666 37.1307 250.828 38.5613L251.094 38.1588C248.868 36.6852 245.547 35.5852 243.206 35.5852V36.0679ZM251.199 38.3988L251.601 35.9271L251.124 35.8496L250.723 38.3214L251.199 38.3988ZM251.423 35.6546C249.486 35.1548 247.365 34.9054 245.338 34.9054V35.3882C247.327 35.3882 249.408 35.6332 251.302 36.1221L251.423 35.6546ZM245.338 34.9054C243.096 34.9054 240.882 35.216 239.218 35.925C237.556 36.6335 236.383 37.7715 236.383 39.4414H236.866C236.866 38.0526 237.826 37.0434 239.407 36.3692C240.988 35.6956 243.13 35.3882 245.338 35.3882V34.9054ZM236.383 39.4414C236.383 40.7107 237.264 41.7814 238.475 42.724C239.694 43.6724 241.313 44.5406 242.907 45.3897C244.512 46.2444 246.091 47.0796 247.272 47.9718C248.462 48.8712 249.175 49.7755 249.175 50.7496H249.657C249.657 49.53 248.771 48.4994 247.563 47.5866C246.345 46.6664 244.727 45.812 243.134 44.9636C241.53 44.1095 239.951 43.2609 238.772 42.343C237.585 41.4193 236.866 40.474 236.866 39.4414H236.383ZM249.175 50.7345C249.135 51.3769 248.748 51.9389 248.057 52.3495C247.362 52.7618 246.373 53.0108 245.183 53.0108V53.4936C246.434 53.4936 247.515 53.2328 248.303 52.7646C249.095 52.2946 249.604 51.6053 249.657 50.7646L249.175 50.7345ZM245.183 53.0108C243.38 53.0108 240.682 52.4706 237.698 50.1871L237.405 50.5705C240.477 52.9215 243.279 53.4936 245.183 53.4936V53.0108ZM237.318 50.3203L236.7 52.792L237.168 52.9091L237.786 50.4374L237.318 50.3203ZM236.852 53.0778C238.947 53.8282 241.446 54.2969 243.824 54.2969V53.8141C241.505 53.8141 239.06 53.356 237.015 52.6233L236.852 53.0778Z" fill="black"/>
<path d="M180.212 21.2607C181.695 21.2607 182.992 21.4975 184.105 21.9713C185.217 22.4244 186.154 23.0321 186.916 23.7942C187.678 24.5357 188.245 25.4008 188.616 26.3895C189.007 27.3576 189.203 28.3566 189.203 29.3865C189.203 30.4575 189.017 31.508 188.646 32.5379C188.276 33.5472 187.72 34.4432 186.978 35.2259C186.237 36.0086 185.299 36.6472 184.166 37.1415C183.034 37.6152 181.695 37.8521 180.15 37.8521H169.583V47.6154C169.583 47.9862 169.594 48.4187 169.614 48.9131C169.635 49.3868 169.717 49.84 169.861 50.2725C170.026 50.7051 170.263 51.0655 170.572 51.3539C170.902 51.6423 171.355 51.7865 171.931 51.7865V52.1572H164.146V51.7865C164.743 51.7865 165.196 51.6423 165.505 51.3539C165.814 51.0655 166.041 50.7051 166.185 50.2725C166.349 49.84 166.442 49.3868 166.463 48.9131C166.483 48.4187 166.494 47.9862 166.494 47.6154V25.8025C166.494 25.4317 166.483 25.0095 166.463 24.5357C166.442 24.0414 166.349 23.5779 166.185 23.1454C166.041 22.7128 165.814 22.3524 165.505 22.064C165.196 21.7756 164.743 21.6314 164.146 21.6314V21.2607H180.212ZM177.987 37.2033C179.347 37.2033 180.531 36.9973 181.54 36.5854C182.57 36.1528 183.425 35.5864 184.105 34.8861C184.784 34.1651 185.289 33.3412 185.619 32.4143C185.969 31.4668 186.144 30.4884 186.144 29.4792C186.144 28.5111 185.969 27.5739 185.619 26.6676C185.289 25.7407 184.774 24.9271 184.074 24.2267C183.394 23.5058 182.539 22.9394 181.509 22.5274C180.48 22.0949 179.275 21.8786 177.894 21.8786H169.583V37.2033H177.987Z" fill="black"/>
<path d="M184.105 21.9713L183.916 22.4155L183.923 22.4184L184.105 21.9713ZM186.916 23.7942L186.575 24.1356L186.58 24.1402L186.916 23.7942ZM188.616 26.3895L188.163 26.5591L188.168 26.5704L188.616 26.3895ZM188.646 32.5379L189.1 32.7044L189.101 32.7014L188.646 32.5379ZM184.166 37.1415L184.353 37.5869L184.36 37.584L184.166 37.1415ZM169.583 37.8521V37.3694H169.101V37.8521H169.583ZM169.614 48.9131L169.132 48.9332L169.132 48.9341L169.614 48.9131ZM169.861 50.2725L169.403 50.4252L169.407 50.4349L169.41 50.4444L169.861 50.2725ZM170.572 51.3539L170.243 51.7068L170.248 51.7121L170.254 51.7172L170.572 51.3539ZM171.931 51.7865H172.414V51.3037H171.931V51.7865ZM171.931 52.1572V52.64H172.414V52.1572H171.931ZM164.146 52.1572H163.663V52.64H164.146V52.1572ZM164.146 51.7865V51.3037H163.663V51.7865H164.146ZM165.505 51.3539L165.834 51.7068L165.505 51.3539ZM166.185 50.2725L165.734 50.1007L165.73 50.1102L165.727 50.1199L166.185 50.2725ZM166.463 48.9131L166.945 48.9341L166.945 48.9332L166.463 48.9131ZM166.463 24.5357L165.98 24.5558L165.98 24.5567L166.463 24.5357ZM166.185 23.1454L165.727 23.298L165.73 23.3077L165.734 23.3172L166.185 23.1454ZM164.146 21.6314H163.663V22.1142H164.146V21.6314ZM164.146 21.2607V20.7779H163.663V21.2607H164.146ZM181.54 36.5854L181.723 37.0323L181.727 37.0305L181.54 36.5854ZM184.105 34.8861L184.451 35.2223L184.456 35.2172L184.105 34.8861ZM185.619 32.4143L185.166 32.247L185.164 32.2526L185.619 32.4143ZM185.619 26.6676L185.164 26.8294L185.168 26.8416L185.619 26.6676ZM184.074 24.2267L183.723 24.5579L183.727 24.5631L183.732 24.5681L184.074 24.2267ZM181.509 22.5274L181.322 22.9726L181.33 22.9757L181.509 22.5274ZM169.583 21.8786V21.3958H169.101V21.8786H169.583ZM169.583 37.2033H169.101V37.6861H169.583V37.2033ZM180.212 21.7434C181.644 21.7434 182.875 21.9722 183.916 22.4154L184.294 21.5271C183.11 21.0228 181.745 20.7779 180.212 20.7779V21.7434ZM183.923 22.4184C184.982 22.85 185.863 23.4239 186.575 24.1356L187.258 23.4528C186.445 22.6403 185.452 21.9989 184.287 21.5242L183.923 22.4184ZM186.58 24.1402C187.291 24.8325 187.818 25.6374 188.164 26.559L189.068 26.22C188.672 25.1642 188.066 24.239 187.253 23.4482L186.58 24.1402ZM188.168 26.5704C188.536 27.4819 188.72 28.4195 188.72 29.3865H189.685C189.685 28.2937 189.477 27.2333 189.063 26.2086L188.168 26.5704ZM188.72 29.3865C188.72 30.4006 188.545 31.3958 188.192 32.3744L189.101 32.7014C189.49 31.6203 189.685 30.5145 189.685 29.3865H188.72ZM188.193 32.3715C187.845 33.319 187.324 34.1587 186.628 34.8939L187.329 35.5579C188.115 34.7277 188.706 33.7754 189.1 32.7044L188.193 32.3715ZM186.628 34.8939C185.937 35.6232 185.056 36.2268 183.973 36.699L184.36 37.584C185.543 37.0675 186.536 36.394 187.329 35.5579L186.628 34.8939ZM183.98 36.6961C182.919 37.1397 181.647 37.3694 180.15 37.3694V38.3349C181.743 38.3349 183.148 38.0908 184.353 37.5869L183.98 36.6961ZM180.15 37.3694H169.583V38.3349H180.15V37.3694ZM169.101 37.8521V47.6154H170.066V37.8521H169.101ZM169.101 47.6154C169.101 47.9947 169.111 48.4342 169.132 48.9332L170.097 48.893C170.076 48.4033 170.066 47.9777 170.066 47.6154H169.101ZM169.132 48.9341C169.154 49.4508 169.244 49.9484 169.403 50.4252L170.319 50.1199C170.19 49.7316 170.115 49.3229 170.097 48.8921L169.132 48.9341ZM169.41 50.4444C169.599 50.9391 169.875 51.3636 170.243 51.7068L170.901 51.001C170.651 50.7675 170.454 50.471 170.313 50.1007L169.41 50.4444ZM170.254 51.7172C170.696 52.1043 171.276 52.2692 171.931 52.2692V51.3037C171.434 51.3037 171.107 51.1803 170.89 50.9906L170.254 51.7172ZM171.449 51.7865V52.1572H172.414V51.7865H171.449ZM171.931 51.6745H164.146V52.64H171.931V51.6745ZM164.628 52.1572V51.7865H163.663V52.1572H164.628ZM164.146 52.2692C164.815 52.2692 165.405 52.1077 165.834 51.7068L165.176 51.001C164.987 51.1768 164.671 51.3037 164.146 51.3037V52.2692ZM165.834 51.7068C166.207 51.3592 166.475 50.928 166.643 50.4252L165.727 50.1199C165.606 50.4822 165.421 50.7719 165.176 51.001L165.834 51.7068ZM166.636 50.4444C166.819 49.9624 166.922 49.4582 166.945 48.9341L165.98 48.8921C165.962 49.3155 165.88 49.7176 165.734 50.1007L166.636 50.4444ZM166.945 48.9332C166.966 48.4342 166.976 47.9947 166.976 47.6154H166.011C166.011 47.9777 166.001 48.4033 165.98 48.893L166.945 48.9332ZM166.976 47.6154V25.8025H166.011V47.6154H166.976ZM166.976 25.8025C166.976 25.4231 166.966 24.9937 166.945 24.5147L165.98 24.5567C166.001 25.0253 166.011 25.4403 166.011 25.8025H166.976ZM166.945 24.5156C166.922 23.9729 166.82 23.4579 166.636 22.9735L165.734 23.3172C165.879 23.698 165.962 24.1098 165.98 24.5558L166.945 24.5156ZM166.643 22.9927C166.475 22.4899 166.207 22.0587 165.834 21.7111L165.176 22.4169C165.421 22.646 165.606 22.9357 165.727 23.298L166.643 22.9927ZM165.834 21.7111C165.405 21.3102 164.815 21.1487 164.146 21.1487V22.1142C164.671 22.1142 164.987 22.2411 165.176 22.4169L165.834 21.7111ZM164.628 21.6314V21.2607H163.663V21.6314H164.628ZM164.146 21.7434H180.212V20.7779H164.146V21.7434ZM177.987 37.6861C179.394 37.6861 180.643 37.473 181.723 37.0323L181.358 36.1384C180.419 36.5217 179.299 36.7205 177.987 36.7205V37.6861ZM181.727 37.0305C182.808 36.5763 183.72 35.9755 184.451 35.2223L183.758 34.5498C183.13 35.1972 182.332 35.7293 181.353 36.1403L181.727 37.0305ZM184.456 35.2172C185.181 34.448 185.721 33.5665 186.073 32.5761L185.164 32.2526C184.857 33.116 184.388 33.8823 183.753 34.5549L184.456 35.2172ZM186.071 32.5817C186.441 31.5807 186.627 30.5456 186.627 29.4792H185.661C185.661 30.4313 185.496 31.353 185.166 32.247L186.071 32.5817ZM186.627 29.4792C186.627 28.4513 186.44 27.4552 186.069 26.4936L185.168 26.8416C185.497 27.6926 185.661 28.5708 185.661 29.4792H186.627ZM186.073 26.5058C185.72 25.5109 185.166 24.6361 184.415 23.8854L183.732 24.5681C184.382 25.2181 184.858 25.9704 185.164 26.8293L186.073 26.5058ZM184.425 23.8956C183.692 23.1178 182.776 22.5141 181.689 22.0792L181.33 22.9757C182.303 23.3647 183.096 23.8938 183.723 24.5579L184.425 23.8956ZM181.696 22.0823C180.595 21.6198 179.324 21.3958 177.894 21.3958V22.3614C179.225 22.3614 180.364 22.5699 181.322 22.9725L181.696 22.0823ZM177.894 21.3958H169.583V22.3614H177.894V21.3958ZM169.101 21.8786V37.2033H170.066V21.8786H169.101ZM169.583 37.6861H177.987V36.7205H169.583V37.6861Z" fill="black"/>
<path d="M53.7155 54.0555C59.1533 54.0555 62.6446 50.4097 62.6446 44.663C62.6446 38.8544 59.1533 35.1468 53.7155 35.1468C48.1542 35.1468 44.7864 38.8544 44.7864 44.663C44.7864 50.4097 48.1542 54.0555 53.7155 54.0555ZM53.7155 53.5921C50.0697 53.5921 48.3086 49.2048 48.3086 44.663C48.3086 40.3683 50.0697 35.6103 53.7155 35.6103C57.1759 35.6103 59.1224 40.3683 59.1224 44.663C59.1224 49.2048 57.1759 53.5921 53.7155 53.5921ZM80.6443 35.1468C77.8945 35.1468 74.5268 37.0624 71.9624 41.357V35.6721H68.2548V53.5303H71.9624V42.1912C73.9088 38.6072 76.844 36.3518 78.8832 36.3518C80.2426 36.3518 81.2004 37.3714 81.2004 39.8122V53.5303H84.908V39.7504C84.908 36.5063 82.7762 35.1468 80.6443 35.1468ZM97.9348 54.0555C101.89 54.0555 105.937 52.6652 106.03 49.0194C106.03 43.5198 93.4857 41.1099 93.4857 38.1129C93.4857 36.5681 95.1232 35.8265 97.3168 35.8265C99.6032 35.8265 102.878 36.9079 105.072 38.3601L105.474 35.8883C103.558 35.394 101.457 35.1468 99.4487 35.1468C94.9996 35.1468 90.7359 36.3827 90.7359 39.4414C90.7359 44.045 103.527 46.3623 103.527 50.7496C103.434 52.2326 101.735 53.2522 99.2942 53.2522C97.4404 53.2522 94.6906 52.6961 91.6628 50.3788L91.0448 52.8505C93.1149 53.5921 95.5866 54.0555 97.9348 54.0555Z" fill="black"/>
<path d="M53.7155 54.2969C56.4902 54.2969 58.7893 53.3654 60.394 51.6808C61.9976 49.9974 62.886 47.5852 62.886 44.663H62.4033C62.4033 47.4875 61.546 49.7716 60.0445 51.3478C58.5441 52.9228 56.3787 53.8141 53.7155 53.8141V54.2969ZM62.886 44.663C62.886 41.7106 61.9981 39.268 60.3952 37.5614C58.7908 35.8533 56.4914 34.9054 53.7155 34.9054V35.3882C56.3774 35.3882 58.5426 36.2941 60.0433 37.8919C61.5455 39.4913 62.4033 41.8068 62.4033 44.663H62.886ZM53.7155 34.9054C50.879 34.9054 48.5786 35.8526 46.9887 37.5623C45.4008 39.2699 44.5451 41.7129 44.5451 44.663H45.0278C45.0278 41.8045 45.8559 39.4894 47.3422 37.8911C48.8265 36.2949 50.9907 35.3882 53.7155 35.3882V34.9054ZM44.5451 44.663C44.5451 47.5829 45.4012 49.9954 46.9899 51.6799C48.5802 53.3661 50.8803 54.2969 53.7155 54.2969V53.8141C50.9894 53.8141 48.825 52.9221 47.3411 51.3487C45.8555 49.7735 45.0278 47.4898 45.0278 44.663H44.5451ZM53.7155 53.3507C52.0094 53.3507 50.7265 52.3307 49.8575 50.7163C48.986 49.0973 48.55 46.9077 48.55 44.663H48.0673C48.0673 46.9601 48.5119 49.235 49.4324 50.9451C50.3553 52.6597 51.7759 53.8334 53.7155 53.8334V53.3507ZM48.55 44.663C48.55 42.5435 48.9854 40.3208 49.8592 38.6373C50.7328 36.9541 52.0179 35.8517 53.7155 35.8517V35.3689C51.7674 35.3689 50.349 36.6455 49.4307 38.4149C48.5124 40.1842 48.0673 42.4879 48.0673 44.663H48.55ZM53.7155 35.8517C55.318 35.8517 56.6045 36.9509 57.5036 38.6396C58.4007 40.3246 58.8811 42.5472 58.8811 44.663H59.3638C59.3638 42.4841 58.8709 40.1804 57.9297 38.4127C56.9905 36.6487 55.5734 35.3689 53.7155 35.3689V35.8517ZM58.8811 44.663C58.8811 46.9039 58.4001 49.0936 57.5053 50.714C56.6109 52.3338 55.3264 53.3507 53.7155 53.3507V53.8334C55.5651 53.8334 56.9841 52.6567 57.9279 50.9474C58.8715 49.2387 59.3638 46.9639 59.3638 44.663H58.8811ZM71.9624 41.357H71.721V42.2321L72.1696 41.4808L71.9624 41.357ZM71.9624 35.6721H72.2037V35.4307H71.9624V35.6721ZM68.2548 35.6721V35.4307H68.0134V35.6721H68.2548ZM68.2548 53.5303H68.0134V53.7717H68.2548V53.5303ZM71.9624 53.5303V53.7717H72.2037V53.5303H71.9624ZM71.9624 42.1912L71.7502 42.076L71.721 42.1299V42.1912H71.9624ZM81.2004 53.5303H80.959V53.7717H81.2004V53.5303ZM84.908 53.5303V53.7717H85.1494V53.5303H84.908ZM80.6443 34.9054C77.783 34.9054 74.3475 36.8918 71.7551 41.2333L72.1696 41.4808C74.7061 37.233 78.006 35.3882 80.6443 35.3882V34.9054ZM72.2037 41.357V35.6721H71.721V41.357H72.2037ZM71.9624 35.4307H68.2548V35.9134H71.9624V35.4307ZM68.0134 35.6721V53.5303H68.4962V35.6721H68.0134ZM68.2548 53.7717H71.9624V53.2889H68.2548V53.7717ZM72.2037 53.5303V42.1912H71.721V53.5303H72.2037ZM72.1745 42.3064C73.1342 40.5393 74.3354 39.1044 75.5412 38.114C76.7536 37.1183 77.9438 36.5932 78.8832 36.5932V36.1104C77.7834 36.1104 76.4864 36.713 75.2348 37.741C73.9767 38.7743 72.737 40.2592 71.7502 42.076L72.1745 42.3064ZM78.8832 36.5932C79.4953 36.5932 79.9981 36.8186 80.3567 37.3091C80.7238 37.8112 80.959 38.6177 80.959 39.8122H81.4418C81.4418 38.5659 81.1982 37.6422 80.7465 37.0242C80.2863 36.3948 79.6305 36.1104 78.8832 36.1104V36.5932ZM80.959 39.8122V53.5303H81.4418V39.8122H80.959ZM81.2004 53.7717H84.908V53.2889H81.2004V53.7717ZM85.1494 53.5303V39.7504H84.6666V53.5303H85.1494ZM85.1494 39.7504C85.1494 38.0723 84.5961 36.8535 83.7402 36.0555C82.8881 35.2611 81.7595 34.9054 80.6443 34.9054V35.3882C81.6609 35.3882 82.6642 35.7123 83.411 36.4086C84.154 37.1014 84.6666 38.1844 84.6666 39.7504H85.1494ZM106.03 49.0194L106.271 49.0255V49.0194H106.03ZM105.072 38.3601L104.939 38.5613L105.25 38.7676L105.31 38.3988L105.072 38.3601ZM105.474 35.8883L105.712 35.9271L105.747 35.7097L105.534 35.6546L105.474 35.8883ZM103.527 50.7496L103.768 50.7646L103.768 50.7571V50.7496H103.527ZM91.6628 50.3788L91.8095 50.1871L91.5177 49.9639L91.4286 50.3203L91.6628 50.3788ZM91.0448 52.8505L90.8107 52.792L90.7577 53.0041L90.9634 53.0778L91.0448 52.8505ZM97.9348 54.2969C99.9348 54.2969 101.979 53.9462 103.543 53.118C105.117 52.2849 106.222 50.9569 106.271 49.0255L105.788 49.0132C105.745 50.7276 104.779 51.9177 103.318 52.6913C101.847 53.4697 99.8895 53.8141 97.9348 53.8141V54.2969ZM106.271 49.0194C106.271 47.5446 105.429 46.3025 104.23 45.2362C103.031 44.1693 101.44 43.2474 99.8708 42.4144C98.2892 41.5749 96.74 40.8307 95.5734 40.1032C94.9917 39.7405 94.5221 39.3919 94.2002 39.0508C93.877 38.7082 93.7271 38.3995 93.7271 38.1129H93.2443C93.2443 38.5756 93.4864 38.9977 93.8491 39.3821C94.2132 39.7679 94.7236 40.1422 95.318 40.5128C96.5033 41.252 98.0901 42.0158 99.6445 42.8409C101.211 43.6724 102.757 44.5716 103.909 45.5969C105.063 46.6229 105.788 47.7444 105.788 49.0194H106.271ZM93.7271 38.1129C93.7271 37.4452 94.0727 36.9464 94.6956 36.6016C95.3296 36.2505 96.2416 36.0679 97.3168 36.0679V35.5852C96.1985 35.5852 95.1949 35.7733 94.4617 36.1792C93.7174 36.5914 93.2443 37.2358 93.2443 38.1129H93.7271ZM97.3168 36.0679C99.548 36.0679 102.777 37.1307 104.939 38.5613L105.205 38.1588C102.979 36.6852 99.6584 35.5852 97.3168 35.5852V36.0679ZM105.31 38.3988L105.712 35.9271L105.235 35.8496L104.834 38.3214L105.31 38.3988ZM105.534 35.6546C103.597 35.1548 101.476 34.9054 99.4487 34.9054V35.3882C101.438 35.3882 103.519 35.6332 105.413 36.1221L105.534 35.6546ZM99.4487 34.9054C97.2073 34.9054 94.9929 35.216 93.3292 35.925C91.667 36.6335 90.4945 37.7715 90.4945 39.4414H90.9773C90.9773 38.0526 91.9366 37.0434 93.5185 36.3692C95.099 35.6956 97.241 35.3882 99.4487 35.3882V34.9054ZM90.4945 39.4414C90.4945 40.7107 91.3749 41.7814 92.5863 42.724C93.805 43.6724 95.4238 44.5406 97.018 45.3897C98.6228 46.2444 100.202 47.0796 101.383 47.9718C102.573 48.8712 103.286 49.7755 103.286 50.7496H103.768C103.768 49.53 102.882 48.4994 101.674 47.5866C100.456 46.6664 98.8379 45.812 97.2449 44.9636C95.6413 44.1095 94.0623 43.2609 92.8827 42.343C91.6957 41.4193 90.9773 40.474 90.9773 39.4414H90.4945ZM103.286 50.7345C103.246 51.3769 102.86 51.9389 102.168 52.3495C101.474 52.7618 100.484 53.0108 99.2942 53.0108V53.4936C100.545 53.4936 101.626 53.2328 102.414 52.7646C103.206 52.2946 103.715 51.6053 103.768 50.7646L103.286 50.7345ZM99.2942 53.0108C97.4909 53.0108 94.7932 52.4706 91.8095 50.1871L91.5161 50.5705C94.5881 52.9215 97.39 53.4936 99.2942 53.4936V53.0108ZM91.4286 50.3203L90.8107 52.792L91.279 52.9091L91.8969 50.4374L91.4286 50.3203ZM90.9634 53.0778C93.0583 53.8282 95.5575 54.2969 97.9348 54.2969V53.8141C95.6158 53.8141 93.1716 53.356 91.1262 52.6233L90.9634 53.0778Z" fill="black"/>
<path d="M34.3226 21.2607C35.8056 21.2607 37.1033 21.4975 38.2155 21.9713C39.3278 22.4244 40.265 23.0321 41.0271 23.7942C41.7892 24.5357 42.3557 25.4008 42.7264 26.3895C43.1178 27.3576 43.3135 28.3566 43.3135 29.3865C43.3135 30.4575 43.1281 31.508 42.7573 32.5379C42.3866 33.5472 41.8304 34.4432 41.0889 35.2259C40.3474 36.0086 39.4102 36.6472 38.2773 37.1415C37.1445 37.6152 35.8056 37.8521 34.2608 37.8521H23.6942V47.6154C23.6942 47.9862 23.7045 48.4187 23.7251 48.9131C23.7457 49.3868 23.828 49.84 23.9722 50.2725C24.137 50.7051 24.3739 51.0655 24.6829 51.3539C25.0124 51.6423 25.4656 51.7865 26.0423 51.7865V52.1572H18.2564V51.7865C18.8537 51.7865 19.3069 51.6423 19.6158 51.3539C19.9248 51.0655 20.1514 50.7051 20.2955 50.2725C20.4603 49.84 20.553 49.3868 20.5736 48.9131C20.5942 48.4187 20.6045 47.9862 20.6045 47.6154V25.8025C20.6045 25.4317 20.5942 25.0095 20.5736 24.5357C20.553 24.0414 20.4603 23.5779 20.2955 23.1454C20.1514 22.7128 19.9248 22.3524 19.6158 22.064C19.3069 21.7756 18.8537 21.6314 18.2564 21.6314V21.2607H34.3226ZM32.098 37.2033C33.4575 37.2033 34.6418 36.9973 35.6511 36.5854C36.681 36.1528 37.5358 35.5864 38.2155 34.8861C38.8953 34.1651 39.3999 33.3412 39.7295 32.4143C40.0796 31.4668 40.2547 30.4884 40.2547 29.4792C40.2547 28.5111 40.0796 27.5739 39.7295 26.6676C39.3999 25.7407 38.885 24.9271 38.1846 24.2267C37.5049 23.5058 36.6501 22.9394 35.6202 22.5274C34.5903 22.0949 33.3854 21.8786 32.0053 21.8786H23.6942V37.2033H32.098Z" fill="black"/>
<path d="M38.2155 21.9713L38.0263 22.4155L38.0334 22.4184L38.2155 21.9713ZM41.0271 23.7942L40.6857 24.1356L40.6905 24.1402L41.0271 23.7942ZM42.7264 26.3895L42.2743 26.5591L42.2789 26.5704L42.7264 26.3895ZM42.7573 32.5379L43.2105 32.7044L43.2116 32.7014L42.7573 32.5379ZM38.2773 37.1415L38.4636 37.5869L38.4704 37.584L38.2773 37.1415ZM23.6942 37.8521V37.3694H23.2114V37.8521H23.6942ZM23.7251 48.9131L23.2427 48.9332L23.2428 48.9341L23.7251 48.9131ZM23.9722 50.2725L23.5142 50.4252L23.5175 50.4349L23.5211 50.4444L23.9722 50.2725ZM24.6829 51.3539L24.3535 51.7068L24.3591 51.7121L24.365 51.7172L24.6829 51.3539ZM26.0423 51.7865H26.5251V51.3037H26.0423V51.7865ZM26.0423 52.1572V52.64H26.5251V52.1572H26.0423ZM18.2564 52.1572H17.7736V52.64H18.2564V52.1572ZM18.2564 51.7865V51.3037H17.7736V51.7865H18.2564ZM19.6158 51.3539L19.9452 51.7068L19.6158 51.3539ZM20.2955 50.2725L19.8444 50.1007L19.8408 50.1102L19.8376 50.1199L20.2955 50.2725ZM20.5736 48.9131L21.0559 48.9341L21.056 48.9332L20.5736 48.9131ZM20.5736 24.5357L20.0913 24.5558L20.0913 24.5567L20.5736 24.5357ZM20.2955 23.1454L19.8376 23.298L19.8408 23.3077L19.8444 23.3172L20.2955 23.1454ZM18.2564 21.6314H17.7736V22.1142H18.2564V21.6314ZM18.2564 21.2607V20.7779H17.7736V21.2607H18.2564ZM35.6511 36.5854L35.8336 37.0323L35.8381 37.0305L35.6511 36.5854ZM38.2155 34.8861L38.562 35.2223L38.5668 35.2172L38.2155 34.8861ZM39.7295 32.4143L39.2766 32.247L39.2746 32.2526L39.7295 32.4143ZM39.7295 26.6676L39.2744 26.8294L39.2792 26.8416L39.7295 26.6676ZM38.1846 24.2267L37.8334 24.5579L37.8383 24.5631L37.8433 24.5681L38.1846 24.2267ZM35.6202 22.5274L35.4333 22.9726L35.4409 22.9757L35.6202 22.5274ZM23.6942 21.8786V21.3958H23.2114V21.8786H23.6942ZM23.6942 37.2033H23.2114V37.6861H23.6942V37.2033ZM34.3226 21.7434C35.7549 21.7434 36.9858 21.9722 38.0264 22.4154L38.4047 21.5271C37.2207 21.0228 35.8563 20.7779 34.3226 20.7779V21.7434ZM38.0334 22.4184C39.0929 22.85 39.9741 23.4239 40.6858 24.1356L41.3685 23.4528C40.5559 22.6403 39.5627 21.9989 38.3977 21.5242L38.0334 22.4184ZM40.6905 24.1402C41.402 24.8325 41.9288 25.6374 42.2744 26.559L43.1785 26.22C42.7825 25.1642 42.1765 24.239 41.3638 23.4482L40.6905 24.1402ZM42.2789 26.5704C42.6473 27.4819 42.8307 28.4195 42.8307 29.3865H43.7962C43.7962 28.2937 43.5883 27.2333 43.174 26.2086L42.2789 26.5704ZM42.8307 29.3865C42.8307 30.4006 42.6554 31.3958 42.3031 32.3744L43.2116 32.7014C43.6008 31.6203 43.7962 30.5145 43.7962 29.3865H42.8307ZM42.3042 32.3715C41.9561 33.319 41.435 34.1587 40.7385 34.8939L41.4394 35.5579C42.2259 34.7277 42.817 33.7754 43.2105 32.7044L42.3042 32.3715ZM40.7385 34.8939C40.0475 35.6232 39.1664 36.2268 38.0843 36.699L38.4704 37.584C39.654 37.0675 40.6473 36.394 41.4394 35.5579L40.7385 34.8939ZM38.0911 36.6961C37.0303 37.1397 35.7576 37.3694 34.2608 37.3694V38.3349C35.8536 38.3349 37.2586 38.0908 38.4636 37.5869L38.0911 36.6961ZM34.2608 37.3694H23.6942V38.3349H34.2608V37.3694ZM23.2114 37.8521V47.6154H24.1769V37.8521H23.2114ZM23.2114 47.6154C23.2114 47.9947 23.2219 48.4342 23.2427 48.9332L24.2074 48.893C24.187 48.4033 24.1769 47.9777 24.1769 47.6154H23.2114ZM23.2428 48.9341C23.2652 49.4508 23.3553 49.9484 23.5142 50.4252L24.4302 50.1199C24.3008 49.7316 24.2261 49.3229 24.2074 48.8921L23.2428 48.9341ZM23.5211 50.4444C23.7096 50.9391 23.9857 51.3636 24.3535 51.7068L25.0122 51.001C24.7621 50.7675 24.5645 50.471 24.4234 50.1007L23.5211 50.4444ZM24.365 51.7172C24.8073 52.1043 25.3863 52.2692 26.0423 52.2692V51.3037C25.5448 51.3037 25.2176 51.1803 25.0008 50.9906L24.365 51.7172ZM25.5595 51.7865V52.1572H26.5251V51.7865H25.5595ZM26.0423 51.6745H18.2564V52.64H26.0423V51.6745ZM18.7391 52.1572V51.7865H17.7736V52.1572H18.7391ZM18.2564 52.2692C18.9254 52.2692 19.5157 52.1077 19.9452 51.7068L19.2864 51.001C19.098 51.1768 18.782 51.3037 18.2564 51.3037V52.2692ZM19.9452 51.7068C20.3177 51.3592 20.5859 50.928 20.7535 50.4252L19.8376 50.1199C19.7168 50.4822 19.5319 50.7719 19.2864 51.001L19.9452 51.7068ZM20.7467 50.4444C20.9303 49.9624 21.0331 49.4582 21.0559 48.9341L20.0913 48.8921C20.0729 49.3155 19.9903 49.7176 19.8444 50.1007L20.7467 50.4444ZM21.056 48.9332C21.0767 48.4342 21.0873 47.9947 21.0873 47.6154H20.1217C20.1217 47.9777 20.1117 48.4033 20.0913 48.893L21.056 48.9332ZM21.0873 47.6154V25.8025H20.1217V47.6154H21.0873ZM21.0873 25.8025C21.0873 25.4231 21.0767 24.9937 21.0559 24.5147L20.0913 24.5567C20.1117 25.0253 20.1217 25.4403 20.1217 25.8025H21.0873ZM21.056 24.5156C21.0333 23.9729 20.9312 23.4579 20.7467 22.9735L19.8444 23.3172C19.9895 23.698 20.0727 24.1098 20.0913 24.5558L21.056 24.5156ZM20.7535 22.9927C20.5859 22.4899 20.3177 22.0587 19.9452 21.7111L19.2864 22.4169C19.5319 22.646 19.7168 22.9357 19.8376 23.298L20.7535 22.9927ZM19.9452 21.7111C19.5157 21.3102 18.9254 21.1487 18.2564 21.1487V22.1142C18.782 22.1142 19.098 22.2411 19.2864 22.4169L19.9452 21.7111ZM18.7391 21.6314V21.2607H17.7736V21.6314H18.7391ZM18.2564 21.7434H34.3226V20.7779H18.2564V21.7434ZM32.098 37.6861C33.5051 37.6861 34.754 37.473 35.8336 37.0323L35.4687 36.1384C34.5297 36.5217 33.4098 36.7205 32.098 36.7205V37.6861ZM35.8381 37.0305C36.9193 36.5763 37.8309 35.9755 38.562 35.2223L37.8691 34.5498C37.2408 35.1972 36.4427 35.7293 35.4642 36.1403L35.8381 37.0305ZM38.5668 35.2172C39.2921 34.448 39.8322 33.5665 40.1843 32.5761L39.2746 32.2526C38.9676 33.116 38.4984 33.8823 37.8643 34.5549L38.5668 35.2172ZM40.1823 32.5817C40.5522 31.5807 40.7375 30.5456 40.7375 29.4792H39.772C39.772 30.4313 39.607 31.353 39.2766 32.247L40.1823 32.5817ZM40.7375 29.4792C40.7375 28.4513 40.5513 27.4552 40.1798 26.4936L39.2792 26.8416C39.608 27.6926 39.772 28.5708 39.772 29.4792H40.7375ZM40.1843 26.5058C39.8306 25.5109 39.2767 24.6361 38.526 23.8854L37.8433 24.5681C38.4933 25.2181 38.9692 25.9704 39.2746 26.8293L40.1843 26.5058ZM38.5359 23.8956C37.8026 23.1178 36.8867 22.5141 35.7995 22.0792L35.4409 22.9757C36.4135 23.3647 37.2073 23.8938 37.8334 24.5579L38.5359 23.8956ZM35.8072 22.0823C34.7059 21.6198 33.4349 21.3958 32.0053 21.3958V22.3614C33.3358 22.3614 34.4748 22.5699 35.4333 22.9725L35.8072 22.0823ZM32.0053 21.3958H23.6942V22.3614H32.0053V21.3958ZM23.2114 21.8786V37.2033H24.1769V21.8786H23.2114ZM23.6942 37.6861H32.098V36.7205H23.6942V37.6861Z" fill="black"/>
</svg>
